<svg width="25" height="24" viewBox="0 0 25 24" fill="none" xmlns="http://www.w3.org/2000/svg">
<rect x="0.75" width="24" height="24" rx="6" fill="white" fill-opacity="0.01"/>
<path d="M19.75 8.4C20.2471 8.4 20.65 7.99706 20.65 7.5C20.65 7.00294 20.2471 6.6 19.75 6.6V8.4ZM10.75 6.6C10.2529 6.6 9.85 7.00294 9.85 7.5C9.85 7.99706 10.2529 8.4 10.75 8.4V6.6ZM19.75 6.6H10.75V8.4H19.75V6.6Z" fill="#525252"/>
<circle cx="6.25" cy="7.5" r="4.5" fill="#525252"/>
<path d="M14.75 17.4C15.2471 17.4 15.65 16.9971 15.65 16.5C15.65 16.0029 15.2471 15.6 14.75 15.6V17.4ZM5.75 15.6C5.25294 15.6 4.85 16.0029 4.85 16.5C4.85 16.9971 5.25294 17.4 5.75 17.4V15.6ZM14.75 15.6H5.75V17.4H14.75V15.6Z" fill="#525252"/>
<circle cx="19.25" cy="16.5" r="4.5" fill="#525252"/>
</svg>
