<svg width="24" height="25" viewBox="0 0 24 25" fill="none" xmlns="http://www.w3.org/2000/svg">
<rect opacity="0.01" y="0.5" width="24" height="24" fill="white"/>
<path d="M22 20.4V11.3261C22 10.4721 22 10.0452 21.8907 9.65144C21.7939 9.30264 21.6348 8.97424 21.421 8.68212C21.1797 8.35236 20.8445 8.08779 20.1743 7.55865L15.4743 3.84813C14.4117 3.00925 13.8804 2.58981 13.2924 2.42878C12.7737 2.28671 12.2263 2.28671 11.7076 2.42878C11.1196 2.58981 10.5883 3.00925 9.52571 3.84812L4.82571 7.55865C4.15546 8.08779 3.82034 8.35236 3.57902 8.68212C3.36525 8.97424 3.20611 9.30264 3.10929 9.65144C3 10.0452 3 10.4721 3 11.3261V20.4C3 20.9601 3 21.2401 3.10899 21.454C3.20487 21.6422 3.35785 21.7951 3.54601 21.891C3.75992 22 4.03995 22 4.6 22H7.4C7.96005 22 8.24008 22 8.45399 21.891C8.64215 21.7951 8.79513 21.6422 8.89101 21.454C9 21.2401 9 20.9601 9 20.4V15.1C9 14.5399 9 14.2599 9.10899 14.046C9.20487 13.8578 9.35785 13.7049 9.54601 13.609C9.75992 13.5 10.0399 13.5 10.6 13.5H14.4C14.9601 13.5 15.2401 13.5 15.454 13.609C15.6422 13.7049 15.7951 13.8578 15.891 14.046C16 14.2599 16 14.5399 16 15.1V20.4C16 20.9601 16 21.2401 16.109 21.454C16.2049 21.6422 16.3578 21.7951 16.546 21.891C16.7599 22 17.0399 22 17.6 22H20.4C20.9601 22 21.2401 22 21.454 21.891C21.6422 21.7951 21.7951 21.6422 21.891 21.454C22 21.2401 22 20.9601 22 20.4Z" fill="#ADADAD"/>
</svg>
